<svg width="635" height="65" viewBox="0 0 635 65" fill="none" xmlns="http://www.w3.org/2000/svg">
<path fill-rule="evenodd" clip-rule="evenodd" d="M25.3914 0C39.4151 0 50.7827 11.3685 50.7827 25.3918C50.7827 39.415 39.4151 50.7831 25.3914 50.7831C11.3681 50.7831 0 39.415 0 25.3918C0 11.3685 11.3681 0 25.3914 0Z" fill="white"/>
<path fill-rule="evenodd" clip-rule="evenodd" d="M1.79483 15.9996C2.13583 15.1432 2.52312 14.3098 2.95206 13.5018H12.1399C11.5351 14.3501 11.009 15.2286 10.5971 16.1538H9.96029C7.41802 14.2358 4.46878 14.6797 1.79483 15.9996Z" fill="#0048CC"/>
<path fill-rule="evenodd" clip-rule="evenodd" d="M25.3914 0.000366211C30.4262 0.000366211 35.1185 1.46587 39.0655 3.99319L11.6949 4.0075C15.6468 1.47125 20.3473 0.000366211 25.3914 0.000366211Z" fill="#0048CC"/>
<path fill-rule="evenodd" clip-rule="evenodd" d="M43.367 7.45859C44.4355 8.52997 45.4077 9.69685 46.2727 10.9442H25.0551C21.7861 9.45728 18.4597 9.50038 15.3361 10.9442L4.52008 10.9299C5.39572 9.66878 6.38145 8.49015 7.46568 7.40947L43.367 7.45859Z" fill="#0048CC"/>
<path fill-rule="evenodd" clip-rule="evenodd" d="M47.833 13.5053C48.2739 14.3369 48.672 15.1947 49.0204 16.0779L37.3184 16.117C34.9783 14.5223 32.4168 14.5789 30.2408 16.1135H29.8207C29.4025 15.214 28.9019 14.3351 28.2711 13.5128L47.833 13.5053Z" fill="#0048CC"/>
<path fill-rule="evenodd" clip-rule="evenodd" d="M49.6191 17.7719C49.8156 18.3978 49.9894 19.0338 50.1375 19.6796L45.4458 19.7002C43.5233 18.5345 41.5732 18.3037 39.7835 19.5554H39.6894C39.5638 18.9153 39.3125 18.3066 38.8782 17.7435L49.6191 17.7719Z" fill="#0048CC"/>
<path fill-rule="evenodd" clip-rule="evenodd" d="M50.3034 20.4605C50.3727 20.8162 50.4364 21.1739 50.492 21.5345L46.619 21.5512C46.5572 21.1383 46.3905 20.7695 46.0972 20.4534L50.3034 20.4605Z" fill="#0048CC"/>
<path fill-rule="evenodd" clip-rule="evenodd" d="M50.7791 25.0614C50.78 25.1714 50.7827 25.2811 50.7827 25.3918C50.7827 25.5722 50.78 25.7516 50.7764 25.9311L0.00674388 25.9346C0.00282541 25.7537 0 25.5733 0 25.3918C0 25.2839 0.00282488 25.1764 0.0039184 25.0689L50.7791 25.0614Z" fill="#656565"/>
<path fill-rule="evenodd" clip-rule="evenodd" d="M0.501209 30.4337C0.426849 30.0642 0.360234 29.6918 0.302277 29.317L12.5162 29.2999C12.954 29.6249 13.2907 29.9471 13.5299 30.4337H0.501209Z" fill="#319900"/>
<path fill-rule="evenodd" clip-rule="evenodd" d="M49.6711 32.8424C49.5665 33.1842 49.454 33.5223 49.3358 33.8573L16.933 33.8715C16.7116 33.622 16.4976 33.365 16.2955 33.0966L1.1904 33.0927C0.984635 32.4456 0.802747 31.7874 0.64856 31.1185H14.4202L16.0277 32.8282L49.6711 32.8424Z" fill="#319900"/>
<path fill-rule="evenodd" clip-rule="evenodd" d="M48.9969 34.7629C48.752 35.3791 48.4829 35.9828 48.1928 36.5741L19.8832 36.5598L20.5492 37.3564L2.98405 37.3422C2.53771 36.5071 2.13547 35.6436 1.78345 34.7557L48.9969 34.7629Z" fill="#319900"/>
<path fill-rule="evenodd" clip-rule="evenodd" d="M47.2947 38.2407C46.7668 39.1388 46.1848 40.0017 45.5537 40.8246L24.1082 40.914L26.7398 43.5114L43.1659 43.5222C41.8188 44.8428 40.326 46.0142 38.713 47.0103L30.2193 47L32.904 49.6529C30.5302 50.3873 28.0071 50.7831 25.3914 50.7831C20.4011 50.7831 15.7465 49.3426 11.822 46.8554L29.9584 46.8768L26.7398 43.5114L7.50096 43.4086C6.41846 42.334 5.43311 41.1613 4.55746 39.9073L23.0075 39.9141L21.3206 38.226L47.2947 38.2407Z" fill="#319900"/>
<path d="M7.20441 55.0215H10.6646C11.3515 55.0215 11.8608 55.0503 12.1973 55.1082C12.5355 55.1679 12.8357 55.2899 13.1015 55.4735C13.3673 55.6593 13.589 55.9048 13.7661 56.2125C13.9435 56.5201 14.0319 56.8668 14.0319 57.2487C14.0319 57.6615 13.9231 58.0433 13.7058 58.388C13.4882 58.7349 13.1921 58.9929 12.8195 59.1664C13.3452 59.3253 13.748 59.5935 14.0319 59.9733C14.314 60.3531 14.4549 60.799 14.4549 61.3128C14.4549 61.7175 14.3643 62.1098 14.1811 62.4916C13.9978 62.8735 13.748 63.1791 13.4298 63.4081C13.1136 63.635 12.7228 63.7756 12.2576 63.8292C11.9678 63.8601 11.2647 63.8806 10.1509 63.8889H7.20441V55.0215ZM8.95689 56.4952V58.5387H10.1005C10.7794 58.5387 11.2022 58.5286 11.3675 58.5078C11.6657 58.4728 11.9014 58.3674 12.0725 58.192C12.2433 58.0164 12.3281 57.7874 12.3281 57.5026C12.3281 57.2281 12.2537 57.0073 12.1066 56.8358C11.9596 56.6645 11.7401 56.5614 11.4501 56.5261C11.2768 56.5055 10.7794 56.4952 9.95973 56.4952H8.95689ZM8.95689 60.0124V62.3905H10.5759C11.2044 62.3905 11.6051 62.3717 11.7742 62.3369C12.0342 62.2872 12.2457 62.1695 12.4088 61.9816C12.5719 61.7917 12.6543 61.5421 12.6543 61.2264C12.6543 60.9579 12.592 60.7328 12.465 60.5472C12.3402 60.3615 12.1571 60.2252 11.9194 60.1407C11.6817 60.0559 11.1642 60.0124 10.3687 60.0124H8.95689Z" fill="black"/>
<path d="M15.9072 63.8889V55.0215H18.5312L20.0821 61.0693L21.6149 55.0215H24.245V63.8889H22.6257L22.6196 56.9081L20.9139 63.8889H19.2302L17.5325 56.9081L17.5262 63.8889H15.9072Z" fill="black"/>
<path d="M26.0214 63.8889V55.0215H27.7736V58.9494L31.3043 55.0215H33.6525L30.3877 58.4747L33.8216 63.8889H31.5618L29.1813 59.7257L27.7736 61.2075V63.8889H26.0214Z" fill="black"/>
<path d="M38.7479 60.6318V59.1333H42.506V62.6711C42.1412 63.0365 41.6119 63.3564 40.917 63.635C40.2244 63.9118 39.5213 64.05 38.8083 64.05C37.904 64.05 37.1166 63.856 36.444 63.4658C35.7733 63.0757 35.2679 62.5164 34.9292 61.7917C34.591 61.0674 34.4218 60.2767 34.4218 59.4244C34.4218 58.4996 34.6111 57.678 34.9878 56.9576C35.3663 56.2394 35.9182 55.6861 36.6453 55.3022C37.2011 55.007 37.89 54.8604 38.7157 54.8604C39.7891 54.8604 40.6291 55.0916 41.2332 55.5542C41.8355 56.0185 42.2242 56.6563 42.3975 57.4736L40.6574 57.8082C40.5361 57.3726 40.3069 57.0279 39.9703 56.774C39.6361 56.5222 39.217 56.3964 38.7135 56.3964C37.9525 56.3964 37.3462 56.644 36.897 57.1414C36.4481 57.6388 36.2223 58.3757 36.2223 59.3521C36.2223 60.4067 36.4498 61.1974 36.9051 61.7235C37.3623 62.25 37.9583 62.5143 38.6975 62.5143C39.062 62.5143 39.4285 62.4399 39.7953 62.2934C40.1641 62.147 40.478 61.9673 40.7415 61.7569V60.6318H38.7479Z" fill="black"/>
<path d="M86.9787 40.221H74.0867V35.293H86.9787V40.221ZM79.8067 22.225H81.2587L72.3707 47.525H66.9147L77.8707 16.725H83.1947L94.1507 47.525H88.6947L79.8067 22.225ZM96.8347 58.173V25.525H101.235L102.291 29.177L100.663 28.605C101.675 27.5637 102.775 26.735 103.963 26.119C105.151 25.4883 106.603 25.173 108.319 25.173C110.475 25.173 112.286 25.6937 113.753 26.735C115.219 27.7763 116.327 29.1623 117.075 30.893C117.837 32.6237 118.219 34.5157 118.219 36.569C118.219 38.6223 117.837 40.5143 117.075 42.245C116.327 43.9757 115.219 45.3617 113.753 46.403C112.286 47.4443 110.475 47.965 108.319 47.965C106.603 47.965 105.209 47.7303 104.139 47.261C103.068 46.7917 101.983 46.0437 100.883 45.017L102.291 43.917V58.173H96.8347ZM107.483 43.477C109.111 43.477 110.372 42.839 111.267 41.563C112.176 40.2723 112.631 38.6077 112.631 36.569C112.631 34.5157 112.176 32.851 111.267 31.575C110.372 30.299 109.111 29.661 107.483 29.661C106.221 29.661 105.187 29.9543 104.381 30.541C103.574 31.1277 102.98 31.9417 102.599 32.983C102.217 34.0097 102.027 35.205 102.027 36.569C102.027 37.933 102.217 39.1357 102.599 40.177C102.98 41.2037 103.574 42.0103 104.381 42.597C105.187 43.1837 106.221 43.477 107.483 43.477ZM127.646 47.965C126.341 47.965 125.27 47.7083 124.434 47.195C123.613 46.667 123.004 45.9703 122.608 45.105C122.212 44.225 122.014 43.257 122.014 42.201V14.525H127.47V39.957C127.47 41.1303 127.536 41.9663 127.668 42.465C127.815 42.949 128.079 43.2423 128.46 43.345C128.842 43.433 129.392 43.477 130.11 43.477L129.626 47.965H127.646ZM133.573 47.525V25.525H139.029V47.525H133.573ZM133.573 22.181V16.725H139.029V22.181H133.573ZM144.099 47.525V14.525H149.555V34.545L156.375 25.525H162.535L154.527 36.085L162.711 47.525H156.551L149.555 37.757V47.525H144.099ZM170.036 47.965C168.863 47.965 167.792 47.7083 166.824 47.195C165.856 46.667 165.086 45.9117 164.514 44.929C163.942 43.9463 163.656 42.7583 163.656 41.365C163.656 40.1183 163.942 39.055 164.514 38.175C165.101 37.2803 165.863 36.5397 166.802 35.953C167.755 35.3517 168.782 34.8823 169.882 34.545C170.997 34.193 172.089 33.9363 173.16 33.775C174.245 33.6137 175.199 33.5183 176.02 33.489C175.961 32.2277 175.639 31.311 175.052 30.739C174.465 30.167 173.468 29.881 172.06 29.881C171.077 29.881 170.117 30.0203 169.178 30.299C168.254 30.563 167.205 30.981 166.032 31.553L165.548 27.109C166.868 26.4637 168.188 25.9797 169.508 25.657C170.843 25.3343 172.192 25.173 173.556 25.173C175.199 25.173 176.614 25.4663 177.802 26.053C178.99 26.6397 179.907 27.5857 180.552 28.891C181.197 30.1817 181.52 31.8903 181.52 34.017V39.957C181.52 41.057 181.571 41.8563 181.674 42.355C181.777 42.839 181.967 43.147 182.246 43.279C182.525 43.411 182.928 43.477 183.456 43.477H184.16L183.676 47.965H181.696C180.875 47.965 180.141 47.855 179.496 47.635C178.865 47.4297 178.323 47.1363 177.868 46.755C177.413 46.3737 177.047 45.9263 176.768 45.413C176.049 46.2197 175.074 46.8503 173.842 47.305C172.625 47.745 171.356 47.965 170.036 47.965ZM172.324 43.785C172.808 43.785 173.409 43.6603 174.128 43.411C174.847 43.147 175.492 42.7437 176.064 42.201V37.185C175.037 37.229 174.011 37.3977 172.984 37.691C171.957 37.9843 171.099 38.417 170.41 38.989C169.721 39.561 169.376 40.2797 169.376 41.145C169.376 42.0397 169.611 42.707 170.08 43.147C170.549 43.5723 171.297 43.785 172.324 43.785ZM193.446 47.965C191.994 47.965 190.681 47.8257 189.508 47.547C188.349 47.2683 187.183 46.865 186.01 46.337L186.494 41.673C187.623 42.333 188.731 42.8683 189.816 43.279C190.916 43.675 192.067 43.873 193.27 43.873C194.355 43.873 195.184 43.697 195.756 43.345C196.328 42.993 196.614 42.4357 196.614 41.673C196.614 41.101 196.46 40.6317 196.152 40.265C195.859 39.8983 195.411 39.5683 194.81 39.275C194.209 38.9817 193.461 38.6663 192.566 38.329C191.217 37.8303 190.065 37.2877 189.112 36.701C188.173 36.1143 187.455 35.4103 186.956 34.589C186.472 33.753 186.23 32.7263 186.23 31.509C186.23 30.2477 186.56 29.133 187.22 28.165C187.88 27.197 188.819 26.4417 190.036 25.899C191.253 25.3563 192.698 25.085 194.37 25.085C195.763 25.085 197.01 25.239 198.11 25.547C199.225 25.855 200.251 26.273 201.19 26.801L200.706 31.465C199.723 30.7757 198.733 30.211 197.736 29.771C196.739 29.3163 195.646 29.089 194.458 29.089C193.519 29.089 192.793 29.2797 192.28 29.661C191.767 30.0423 191.51 30.585 191.51 31.289C191.51 32.1397 191.869 32.7777 192.588 33.203C193.307 33.6283 194.458 34.149 196.042 34.765C197.069 35.161 197.956 35.5717 198.704 35.997C199.467 36.4223 200.097 36.8917 200.596 37.405C201.095 37.9183 201.461 38.505 201.696 39.165C201.945 39.8103 202.07 40.5583 202.07 41.409C202.07 42.8023 201.733 43.9903 201.058 44.973C200.398 45.941 199.423 46.6817 198.132 47.195C196.856 47.7083 195.294 47.965 193.446 47.965ZM205.803 47.525V25.525H211.259V47.525H205.803ZM205.803 22.181V16.725H211.259V22.181H205.803ZM225.641 47.525L229.909 16.725H234.529L242.053 30.761L249.533 16.725H254.153L258.421 47.525H252.569L249.621 24.381L251.161 24.689L242.053 41.057L232.901 24.733L234.441 24.425L231.493 47.525H225.641ZM267.403 47.965C266.23 47.965 265.159 47.7083 264.191 47.195C263.223 46.667 262.453 45.9117 261.881 44.929C261.309 43.9463 261.023 42.7583 261.023 41.365C261.023 40.1183 261.309 39.055 261.881 38.175C262.468 37.2803 263.23 36.5397 264.169 35.953C265.122 35.3517 266.149 34.8823 267.249 34.545C268.364 34.193 269.456 33.9363 270.527 33.775C271.612 33.6137 272.566 33.5183 273.387 33.489C273.328 32.2277 273.006 31.311 272.419 30.739C271.832 30.167 270.835 29.881 269.427 29.881C268.444 29.881 267.484 30.0203 266.545 30.299C265.621 30.563 264.572 30.981 263.399 31.553L262.915 27.109C264.235 26.4637 265.555 25.9797 266.875 25.657C268.21 25.3343 269.559 25.173 270.923 25.173C272.566 25.173 273.981 25.4663 275.169 26.053C276.357 26.6397 277.274 27.5857 277.919 28.891C278.564 30.1817 278.887 31.8903 278.887 34.017V39.957C278.887 41.057 278.938 41.8563 279.041 42.355C279.144 42.839 279.334 43.147 279.613 43.279C279.892 43.411 280.295 43.477 280.823 43.477H281.527L281.043 47.965H279.063C278.242 47.965 277.508 47.855 276.863 47.635C276.232 47.4297 275.69 47.1363 275.235 46.755C274.78 46.3737 274.414 45.9263 274.135 45.413C273.416 46.2197 272.441 46.8503 271.209 47.305C269.992 47.745 268.723 47.965 267.403 47.965ZM269.691 43.785C270.175 43.785 270.776 43.6603 271.495 43.411C272.214 43.147 272.859 42.7437 273.431 42.201V37.185C272.404 37.229 271.378 37.3977 270.351 37.691C269.324 37.9843 268.466 38.417 267.777 38.989C267.088 39.561 266.743 40.2797 266.743 41.145C266.743 42.0397 266.978 42.707 267.447 43.147C267.916 43.5723 268.664 43.785 269.691 43.785ZM284.565 47.525V25.525H289.669L289.889 29.617L288.613 27.945C289.449 27.241 290.447 26.603 291.605 26.031C292.764 25.459 294.113 25.173 295.653 25.173C298.469 25.173 300.559 26.1117 301.923 27.989C303.287 29.8517 303.969 32.2717 303.969 35.249V47.525H298.513V35.689C298.513 33.6357 298.169 32.1177 297.479 31.135C296.805 30.1523 295.697 29.661 294.157 29.661C292.911 29.661 291.891 29.969 291.099 30.585C290.307 31.1863 289.611 31.993 289.009 33.005L290.021 30.321V47.525H284.565ZM313.595 47.965C312.421 47.965 311.351 47.7083 310.383 47.195C309.415 46.667 308.645 45.9117 308.073 44.929C307.501 43.9463 307.215 42.7583 307.215 41.365C307.215 40.1183 307.501 39.055 308.073 38.175C308.659 37.2803 309.422 36.5397 310.361 35.953C311.314 35.3517 312.341 34.8823 313.441 34.545C314.555 34.193 315.648 33.9363 316.719 33.775C317.804 33.6137 318.757 33.5183 319.579 33.489C319.52 32.2277 319.197 31.311 318.611 30.739C318.024 30.167 317.027 29.881 315.619 29.881C314.636 29.881 313.675 30.0203 312.737 30.299C311.813 30.563 310.764 30.981 309.591 31.553L309.107 27.109C310.427 26.4637 311.747 25.9797 313.067 25.657C314.401 25.3343 315.751 25.173 317.115 25.173C318.757 25.173 320.173 25.4663 321.361 26.053C322.549 26.6397 323.465 27.5857 324.111 28.891C324.756 30.1817 325.079 31.8903 325.079 34.017V39.957C325.079 41.057 325.13 41.8563 325.233 42.355C325.335 42.839 325.526 43.147 325.805 43.279C326.083 43.411 326.487 43.477 327.015 43.477H327.719L327.235 47.965H325.255C324.433 47.965 323.7 47.855 323.055 47.635C322.424 47.4297 321.881 47.1363 321.427 46.755C320.972 46.3737 320.605 45.9263 320.327 45.413C319.608 46.2197 318.633 46.8503 317.401 47.305C316.183 47.745 314.915 47.965 313.595 47.965ZM315.883 43.785C316.367 43.785 316.968 43.6603 317.687 43.411C318.405 43.147 319.051 42.7437 319.623 42.201V37.185C318.596 37.229 317.569 37.3977 316.543 37.691C315.516 37.9843 314.658 38.417 313.969 38.989C313.279 39.561 312.935 40.2797 312.935 41.145C312.935 42.0397 313.169 42.707 313.639 43.147C314.108 43.5723 314.856 43.785 315.883 43.785ZM328.601 58.173L328.117 53.685C328.806 53.685 329.341 53.575 329.723 53.355C330.104 53.1497 330.368 52.7903 330.515 52.277C330.676 51.7637 330.757 51.0597 330.757 50.165V25.525H336.213V52.409C336.213 53.949 335.985 55.1297 335.531 55.951C335.076 56.787 334.409 57.3663 333.529 57.689C332.649 58.0117 331.578 58.173 330.317 58.173H328.601ZM330.757 22.181V16.725H336.213V22.181H330.757ZM351.931 47.965C349.276 47.965 347.062 47.437 345.287 46.381C343.527 45.3103 342.207 43.9023 341.327 42.157C340.447 40.397 340.007 38.4757 340.007 36.393C340.007 34.3837 340.418 32.5283 341.239 30.827C342.075 29.1257 343.292 27.7617 344.891 26.735C346.49 25.6937 348.44 25.173 350.743 25.173C352.855 25.173 354.615 25.6057 356.023 26.471C357.431 27.3363 358.487 28.495 359.191 29.947C359.895 31.3843 360.247 32.9757 360.247 34.721C360.247 35.205 360.218 35.6963 360.159 36.195C360.1 36.679 360.012 37.185 359.895 37.713H345.683C345.888 39.077 346.314 40.1843 346.959 41.035C347.619 41.871 348.418 42.487 349.357 42.883C350.31 43.279 351.33 43.477 352.415 43.477C353.691 43.477 354.879 43.3157 355.979 42.993C357.079 42.6557 358.091 42.2157 359.015 41.673L359.279 46.293C358.443 46.733 357.402 47.1217 356.155 47.459C354.908 47.7963 353.5 47.965 351.931 47.965ZM345.815 34.017H354.703C354.703 33.357 354.578 32.697 354.329 32.037C354.08 31.3623 353.662 30.7977 353.075 30.343C352.503 29.8883 351.726 29.661 350.743 29.661C349.335 29.661 348.228 30.0717 347.421 30.893C346.614 31.7143 346.079 32.7557 345.815 34.017ZM363.971 47.525V25.525H368.635L368.987 28.737L368.195 27.769C369.031 27.109 370.029 26.515 371.187 25.987C372.361 25.4443 373.725 25.173 375.279 25.173C376.453 25.173 377.487 25.349 378.381 25.701C379.291 26.0383 380.068 26.5297 380.713 27.175C381.359 27.8057 381.879 28.561 382.275 29.441L380.955 29.133C381.659 27.8717 382.686 26.8963 384.035 26.207C385.399 25.5177 386.939 25.173 388.655 25.173C390.679 25.173 392.329 25.591 393.605 26.427C394.881 27.263 395.82 28.4437 396.421 29.969C397.023 31.4797 397.323 33.2543 397.323 35.293V47.525H391.867V35.689C391.867 33.6357 391.545 32.1177 390.899 31.135C390.269 30.1523 389.213 29.661 387.731 29.661C386.998 29.661 386.353 29.793 385.795 30.057C385.253 30.3063 384.798 30.6803 384.431 31.179C384.079 31.663 383.815 32.257 383.639 32.961C383.463 33.6503 383.375 34.4277 383.375 35.293V47.525H377.919V35.689C377.919 34.325 377.773 33.1957 377.479 32.301C377.201 31.4063 376.746 30.7463 376.115 30.321C375.499 29.881 374.693 29.661 373.695 29.661C372.419 29.661 371.371 29.9617 370.549 30.563C369.743 31.1497 369.031 31.949 368.415 32.961L369.427 30.013V47.525H363.971ZM412.818 47.965C410.163 47.965 407.948 47.437 406.174 46.381C404.414 45.3103 403.094 43.9023 402.214 42.157C401.334 40.397 400.894 38.4757 400.894 36.393C400.894 34.3837 401.304 32.5283 402.126 30.827C402.962 29.1257 404.179 27.7617 405.778 26.735C407.376 25.6937 409.327 25.173 411.63 25.173C413.742 25.173 415.502 25.6057 416.91 26.471C418.318 27.3363 419.374 28.495 420.078 29.947C420.782 31.3843 421.134 32.9757 421.134 34.721C421.134 35.205 421.104 35.6963 421.046 36.195C420.987 36.679 420.899 37.185 420.782 37.713H406.57C406.775 39.077 407.2 40.1843 407.846 41.035C408.506 41.871 409.305 42.487 410.244 42.883C411.197 43.279 412.216 43.477 413.302 43.477C414.578 43.477 415.766 43.3157 416.866 42.993C417.966 42.6557 418.978 42.2157 419.902 41.673L420.166 46.293C419.33 46.733 418.288 47.1217 417.042 47.459C415.795 47.7963 414.387 47.965 412.818 47.965ZM406.702 34.017H415.59C415.59 33.357 415.465 32.697 415.216 32.037C414.966 31.3623 414.548 30.7977 413.962 30.343C413.39 29.8883 412.612 29.661 411.63 29.661C410.222 29.661 409.114 30.0717 408.308 30.893C407.501 31.7143 406.966 32.7557 406.702 34.017ZM424.858 47.525V25.525H429.962L430.182 29.617L428.906 27.945C429.742 27.241 430.74 26.603 431.898 26.031C433.057 25.459 434.406 25.173 435.946 25.173C438.762 25.173 440.852 26.1117 442.216 27.989C443.58 29.8517 444.262 32.2717 444.262 35.249V47.525H438.806V35.689C438.806 33.6357 438.462 32.1177 437.772 31.135C437.098 30.1523 435.99 29.661 434.45 29.661C433.204 29.661 432.184 29.969 431.392 30.585C430.6 31.1863 429.904 31.993 429.302 33.005L430.314 30.321V47.525H424.858ZM459.854 47.525V16.725H471.382C474.316 16.725 476.926 17.341 479.214 18.573C481.502 19.7903 483.299 21.5503 484.604 23.853C485.91 26.141 486.562 28.8983 486.562 32.125C486.562 35.3517 485.91 38.1163 484.604 40.419C483.299 42.707 481.502 44.467 479.214 45.699C476.926 46.9163 474.316 47.525 471.382 47.525H459.854ZM465.486 42.509H471.382C473.377 42.509 475.042 42.091 476.376 41.255C477.711 40.419 478.716 39.2237 479.39 37.669C480.065 36.1143 480.402 34.2663 480.402 32.125C480.402 29.9837 480.065 28.1357 479.39 26.581C478.716 25.0263 477.711 23.831 476.376 22.995C475.042 22.159 473.377 21.741 471.382 21.741H465.486V42.509ZM495.052 47.965C493.878 47.965 492.808 47.7083 491.84 47.195C490.872 46.667 490.102 45.9117 489.53 44.929C488.958 43.9463 488.672 42.7583 488.672 41.365C488.672 40.1183 488.958 39.055 489.53 38.175C490.116 37.2803 490.879 36.5397 491.818 35.953C492.771 35.3517 493.798 34.8823 494.898 34.545C496.012 34.193 497.105 33.9363 498.176 33.775C499.261 33.6137 500.214 33.5183 501.036 33.489C500.977 32.2277 500.654 31.311 500.068 30.739C499.481 30.167 498.484 29.881 497.076 29.881C496.093 29.881 495.132 30.0203 494.194 30.299C493.27 30.563 492.221 30.981 491.048 31.553L490.564 27.109C491.884 26.4637 493.204 25.9797 494.524 25.657C495.858 25.3343 497.208 25.173 498.572 25.173C500.214 25.173 501.63 25.4663 502.818 26.053C504.006 26.6397 504.922 27.5857 505.568 28.891C506.213 30.1817 506.536 31.8903 506.536 34.017V39.957C506.536 41.057 506.587 41.8563 506.69 42.355C506.792 42.839 506.983 43.147 507.262 43.279C507.54 43.411 507.944 43.477 508.472 43.477H509.176L508.692 47.965H506.712C505.89 47.965 505.157 47.855 504.512 47.635C503.881 47.4297 503.338 47.1363 502.884 46.755C502.429 46.3737 502.062 45.9263 501.784 45.413C501.065 46.2197 500.09 46.8503 498.858 47.305C497.64 47.745 496.372 47.965 495.052 47.965ZM497.34 43.785C497.824 43.785 498.425 43.6603 499.144 43.411C499.862 43.147 500.508 42.7437 501.08 42.201V37.185C500.053 37.229 499.026 37.3977 498 37.691C496.973 37.9843 496.115 38.417 495.426 38.989C494.736 39.561 494.392 40.2797 494.392 41.145C494.392 42.0397 494.626 42.707 495.096 43.147C495.565 43.5723 496.313 43.785 497.34 43.785ZM519.042 47.965C517.663 47.965 516.541 47.6863 515.676 47.129C514.811 46.557 514.173 45.831 513.762 44.951C513.351 44.071 513.146 43.1543 513.146 42.201V30.013H510.022L510.506 25.525H513.146V20.685L518.602 20.113V25.525H523.442V30.013H518.602V39.957C518.602 41.0717 518.668 41.8783 518.8 42.377C518.932 42.861 519.233 43.169 519.702 43.301C520.171 43.4183 520.919 43.477 521.946 43.477H523.442L522.958 47.965H519.042ZM531.747 47.965C530.574 47.965 529.503 47.7083 528.535 47.195C527.567 46.667 526.797 45.9117 526.225 44.929C525.653 43.9463 525.367 42.7583 525.367 41.365C525.367 40.1183 525.653 39.055 526.225 38.175C526.812 37.2803 527.574 36.5397 528.513 35.953C529.466 35.3517 530.493 34.8823 531.593 34.545C532.708 34.193 533.8 33.9363 534.871 33.775C535.956 33.6137 536.91 33.5183 537.731 33.489C537.672 32.2277 537.35 31.311 536.763 30.739C536.176 30.167 535.179 29.881 533.771 29.881C532.788 29.881 531.828 30.0203 530.889 30.299C529.965 30.563 528.916 30.981 527.743 31.553L527.259 27.109C528.579 26.4637 529.899 25.9797 531.219 25.657C532.554 25.3343 533.903 25.173 535.267 25.173C536.91 25.173 538.325 25.4663 539.513 26.053C540.701 26.6397 541.618 27.5857 542.263 28.891C542.908 30.1817 543.231 31.8903 543.231 34.017V39.957C543.231 41.057 543.282 41.8563 543.385 42.355C543.488 42.839 543.678 43.147 543.957 43.279C544.236 43.411 544.639 43.477 545.167 43.477H545.871L545.387 47.965H543.407C542.586 47.965 541.852 47.855 541.207 47.635C540.576 47.4297 540.034 47.1363 539.579 46.755C539.124 46.3737 538.758 45.9263 538.479 45.413C537.76 46.2197 536.785 46.8503 535.553 47.305C534.336 47.745 533.067 47.965 531.747 47.965ZM534.035 43.785C534.519 43.785 535.12 43.6603 535.839 43.411C536.558 43.147 537.203 42.7437 537.775 42.201V37.185C536.748 37.229 535.722 37.3977 534.695 37.691C533.668 37.9843 532.81 38.417 532.121 38.989C531.432 39.561 531.087 40.2797 531.087 41.145C531.087 42.0397 531.322 42.707 531.791 43.147C532.26 43.5723 533.008 43.785 534.035 43.785ZM560.349 47.965C558.677 47.965 557.232 47.6937 556.015 47.151C554.798 46.6083 553.661 45.8677 552.605 44.929L554.233 43.785L553.969 47.525H548.865V14.525H554.321V29.177L553.001 28.341C553.969 27.3437 555.047 26.5663 556.235 26.009C557.438 25.4517 558.809 25.173 560.349 25.173C562.505 25.173 564.316 25.6937 565.783 26.735C567.25 27.7763 568.357 29.1623 569.105 30.893C569.868 32.6237 570.249 34.5157 570.249 36.569C570.249 38.6223 569.868 40.5143 569.105 42.245C568.357 43.9757 567.25 45.3617 565.783 46.403C564.316 47.4443 562.505 47.965 560.349 47.965ZM559.557 43.477C560.642 43.477 561.566 43.1837 562.329 42.597C563.092 42.0103 563.671 41.2037 564.067 40.177C564.463 39.1357 564.661 37.933 564.661 36.569C564.661 35.205 564.463 34.0097 564.067 32.983C563.671 31.9417 563.092 31.1277 562.329 30.541C561.566 29.9543 560.642 29.661 559.557 29.661C558.281 29.661 557.24 29.9543 556.433 30.541C555.626 31.1277 555.025 31.9417 554.629 32.983C554.248 34.0097 554.057 35.205 554.057 36.569C554.057 37.933 554.248 39.1357 554.629 40.177C555.025 41.2037 555.626 42.0103 556.433 42.597C557.24 43.1837 558.281 43.477 559.557 43.477ZM578.798 47.965C577.624 47.965 576.554 47.7083 575.586 47.195C574.618 46.667 573.848 45.9117 573.276 44.929C572.704 43.9463 572.418 42.7583 572.418 41.365C572.418 40.1183 572.704 39.055 573.276 38.175C573.862 37.2803 574.625 36.5397 575.564 35.953C576.517 35.3517 577.544 34.8823 578.644 34.545C579.758 34.193 580.851 33.9363 581.922 33.775C583.007 33.6137 583.96 33.5183 584.782 33.489C584.723 32.2277 584.4 31.311 583.814 30.739C583.227 30.167 582.23 29.881 580.822 29.881C579.839 29.881 578.878 30.0203 577.94 30.299C577.016 30.563 575.967 30.981 574.794 31.553L574.31 27.109C575.63 26.4637 576.95 25.9797 578.27 25.657C579.604 25.3343 580.954 25.173 582.318 25.173C583.96 25.173 585.376 25.4663 586.564 26.053C587.752 26.6397 588.668 27.5857 589.314 28.891C589.959 30.1817 590.282 31.8903 590.282 34.017V39.957C590.282 41.057 590.333 41.8563 590.436 42.355C590.538 42.839 590.729 43.147 591.008 43.279C591.286 43.411 591.69 43.477 592.218 43.477H592.922L592.438 47.965H590.458C589.636 47.965 588.903 47.855 588.258 47.635C587.627 47.4297 587.084 47.1363 586.63 46.755C586.175 46.3737 585.808 45.9263 585.53 45.413C584.811 46.2197 583.836 46.8503 582.604 47.305C581.386 47.745 580.118 47.965 578.798 47.965ZM581.086 43.785C581.57 43.785 582.171 43.6603 582.89 43.411C583.608 43.147 584.254 42.7437 584.826 42.201V37.185C583.799 37.229 582.772 37.3977 581.746 37.691C580.719 37.9843 579.861 38.417 579.172 38.989C578.482 39.561 578.138 40.2797 578.138 41.145C578.138 42.0397 578.372 42.707 578.842 43.147C579.311 43.5723 580.059 43.785 581.086 43.785ZM602.208 47.965C600.756 47.965 599.443 47.8257 598.27 47.547C597.111 47.2683 595.945 46.865 594.772 46.337L595.256 41.673C596.385 42.333 597.492 42.8683 598.578 43.279C599.678 43.675 600.829 43.873 602.032 43.873C603.117 43.873 603.946 43.697 604.518 43.345C605.09 42.993 605.376 42.4357 605.376 41.673C605.376 41.101 605.222 40.6317 604.914 40.265C604.62 39.8983 604.173 39.5683 603.572 39.275C602.97 38.9817 602.222 38.6663 601.328 38.329C599.978 37.8303 598.827 37.2877 597.874 36.701C596.935 36.1143 596.216 35.4103 595.718 34.589C595.234 33.753 594.992 32.7263 594.992 31.509C594.992 30.2477 595.322 29.133 595.982 28.165C596.642 27.197 597.58 26.4417 598.798 25.899C600.015 25.3563 601.46 25.085 603.132 25.085C604.525 25.085 605.772 25.239 606.872 25.547C607.986 25.855 609.013 26.273 609.952 26.801L609.468 31.465C608.485 30.7757 607.495 30.211 606.498 29.771C605.5 29.3163 604.408 29.089 603.22 29.089C602.281 29.089 601.555 29.2797 601.042 29.661C600.528 30.0423 600.272 30.585 600.272 31.289C600.272 32.1397 600.631 32.7777 601.35 33.203C602.068 33.6283 603.22 34.149 604.804 34.765C605.83 35.161 606.718 35.5717 607.466 35.997C608.228 36.4223 608.859 36.8917 609.358 37.405C609.856 37.9183 610.223 38.505 610.458 39.165C610.707 39.8103 610.832 40.5583 610.832 41.409C610.832 42.8023 610.494 43.9903 609.82 44.973C609.16 45.941 608.184 46.6817 606.894 47.195C605.618 47.7083 604.056 47.965 602.208 47.965ZM625.169 47.965C622.515 47.965 620.3 47.437 618.525 46.381C616.765 45.3103 615.445 43.9023 614.565 42.157C613.685 40.397 613.245 38.4757 613.245 36.393C613.245 34.3837 613.656 32.5283 614.477 30.827C615.313 29.1257 616.531 27.7617 618.129 26.735C619.728 25.6937 621.679 25.173 623.981 25.173C626.093 25.173 627.853 25.6057 629.261 26.471C630.669 27.3363 631.725 28.495 632.429 29.947C633.133 31.3843 633.485 32.9757 633.485 34.721C633.485 35.205 633.456 35.6963 633.397 36.195C633.339 36.679 633.251 37.185 633.133 37.713H618.921C619.127 39.077 619.552 40.1843 620.197 41.035C620.857 41.871 621.657 42.487 622.595 42.883C623.549 43.279 624.568 43.477 625.653 43.477C626.929 43.477 628.117 43.3157 629.217 42.993C630.317 42.6557 631.329 42.2157 632.253 41.673L632.517 46.293C631.681 46.733 630.64 47.1217 629.393 47.459C628.147 47.7963 626.739 47.965 625.169 47.965ZM619.053 34.017H627.941C627.941 33.357 627.817 32.697 627.567 32.037C627.318 31.3623 626.9 30.7977 626.313 30.343C625.741 29.8883 624.964 29.661 623.981 29.661C622.573 29.661 621.466 30.0717 620.659 30.893C619.853 31.7143 619.317 32.7557 619.053 34.017Z" fill="#4A4A4A"/>
</svg>
